<svg width="542" height="94" viewBox="0 0 542 94" fill="none" xmlns="http://www.w3.org/2000/svg">
    <rect width="542" height="94" rx="33" fill="black" fill-opacity="0.1"/>
    <g filter="url(#filter0_d_48_2)">
    <path d="M83 58.4C80.28 58.4 77.9333 57.84 75.96 56.72C73.9867 55.6 72.4667 54.08 71.4 52.16C70.3333 50.2133 69.8 48 69.8 45.52C69.8 43.6267 70.16 41.8267 70.88 40.12C71.6267 38.3867 72.6267 36.8533 73.88 35.52C75.16 34.1867 76.6267 33.1333 78.28 32.36C79.96 31.5867 81.7333 31.2 83.6 31.2C84.9333 31.2 86.0667 31.2933 87 31.48C87.9333 31.64 88.76 31.8667 89.48 32.16C90.2267 32.4267 90.9733 32.7467 91.72 33.12L91.92 40.12H91.2L88.76 35.24C87.7467 34.52 86.8533 34 86.08 33.68C85.3333 33.36 84.48 33.2 83.52 33.2C81.6 33.2 79.88 33.68 78.36 34.64C76.8667 35.6 75.68 36.92 74.8 38.6C73.9467 40.2533 73.52 42.16 73.52 44.32C73.52 46.8533 73.9333 49.0267 74.76 50.84C75.6133 52.6267 76.7467 54 78.16 54.96C79.6 55.8933 81.1867 56.36 82.92 56.36C84.3867 56.36 85.6133 56.16 86.6 55.76C87.6133 55.3333 88.5067 54.8667 89.28 54.36L91.68 50.08H92.36L91.92 56.44C91.1467 56.84 90.3467 57.1867 89.52 57.48C88.72 57.7733 87.8 58 86.76 58.16C85.72 58.32 84.4667 58.4 83 58.4ZM98.6234 58V57.36L101.503 56.04V37.56L98.6234 36.24V35.6H107.503C109.983 35.6 111.93 36.1067 113.343 37.12C114.783 38.1333 115.503 39.52 115.503 41.28C115.503 42.5867 115.09 43.7067 114.263 44.64C113.463 45.5733 112.343 46.3067 110.903 46.84L117.103 56.16L119.743 57.36V58H114.063L107.583 47.8H104.863V56L107.503 57.36V58H98.6234ZM106.943 37.6H104.863V45.8H107.143C108.583 45.8 109.73 45.44 110.583 44.72C111.463 43.9733 111.903 42.96 111.903 41.68C111.903 40.32 111.463 39.3067 110.583 38.64C109.73 37.9467 108.517 37.6 106.943 37.6ZM133.739 58.4C131.552 58.4 129.592 57.9067 127.859 56.92C126.152 55.9067 124.806 54.5333 123.819 52.8C122.832 51.04 122.339 49.04 122.339 46.8C122.339 44.56 122.832 42.56 123.819 40.8C124.806 39.04 126.152 37.6667 127.859 36.68C129.592 35.6667 131.552 35.16 133.739 35.16C135.952 35.16 137.912 35.6667 139.619 36.68C141.352 37.6667 142.712 39.04 143.699 40.8C144.712 42.56 145.219 44.56 145.219 46.8C145.219 49.04 144.712 51.04 143.699 52.8C142.712 54.5333 141.352 55.9067 139.619 56.92C137.912 57.9067 135.952 58.4 133.739 58.4ZM134.419 56.4C136.712 56.4 138.512 55.6133 139.819 54.04C141.126 52.4667 141.779 50.3867 141.779 47.8C141.779 45.6933 141.419 43.84 140.699 42.24C139.979 40.64 138.966 39.4 137.659 38.52C136.379 37.6133 134.899 37.16 133.219 37.16C130.926 37.16 129.112 37.9333 127.779 39.48C126.446 41.0267 125.779 43.0933 125.779 45.68C125.779 47.8133 126.139 49.6933 126.859 51.32C127.606 52.92 128.619 54.1733 129.899 55.08C131.206 55.96 132.712 56.4 134.419 56.4ZM156.914 58.16L150.514 37.4L147.834 36.24V35.6H157.114V36.24L154.114 37.36L158.474 52H158.714L165.194 35.44H166.674L172.794 52H172.994L177.074 37.44L174.074 36.24V35.6H181.954V36.24L179.594 37.4L173.274 58.16H171.594L165.274 41.56H165.074L158.554 58.16H156.914ZM184.947 58V57.36L187.787 56.04V37.52L184.947 36.24V35.6H190.547L204.107 52.04V37.52L200.707 36.24V35.6H209.107V36.24L206.307 37.52V58.16H204.747L189.987 40.4V55.92L193.427 57.36V58H184.947ZM235.692 58.4C233.506 58.4 231.546 57.9067 229.812 56.92C228.106 55.9067 226.759 54.5333 225.772 52.8C224.786 51.04 224.292 49.04 224.292 46.8C224.292 44.56 224.786 42.56 225.772 40.8C226.759 39.04 228.106 37.6667 229.812 36.68C231.546 35.6667 233.506 35.16 235.692 35.16C237.906 35.16 239.866 35.6667 241.572 36.68C243.306 37.6667 244.666 39.04 245.652 40.8C246.666 42.56 247.172 44.56 247.172 46.8C247.172 49.04 246.666 51.04 245.652 52.8C244.666 54.5333 243.306 55.9067 241.572 56.92C239.866 57.9067 237.906 58.4 235.692 58.4ZM236.372 56.4C238.666 56.4 240.466 55.6133 241.772 54.04C243.079 52.4667 243.732 50.3867 243.732 47.8C243.732 45.6933 243.372 43.84 242.652 42.24C241.932 40.64 240.919 39.4 239.612 38.52C238.332 37.6133 236.852 37.16 235.172 37.16C232.879 37.16 231.066 37.9333 229.732 39.48C228.399 41.0267 227.732 43.0933 227.732 45.68C227.732 47.8133 228.092 49.6933 228.812 51.32C229.559 52.92 230.572 54.1733 231.852 55.08C233.159 55.96 234.666 56.4 236.372 56.4ZM252.569 58V57.36L255.449 56.04V37.56L252.609 36.24V35.6H269.609V41.28H268.969L267.169 37.64H258.849V45.4H264.849L266.049 42.68H266.689V50.08H266.049L264.849 47.4H258.849V56.04L262.169 57.36V58H252.569ZM298.391 58.4C295.671 58.4 293.324 57.84 291.351 56.72C289.377 55.6 287.857 54.08 286.791 52.16C285.724 50.2133 285.191 48 285.191 45.52C285.191 43.6267 285.551 41.8267 286.271 40.12C287.017 38.3867 288.017 36.8533 289.271 35.52C290.551 34.1867 292.017 33.1333 293.671 32.36C295.351 31.5867 297.124 31.2 298.991 31.2C300.324 31.2 301.457 31.2933 302.391 31.48C303.324 31.64 304.151 31.8667 304.871 32.16C305.617 32.4267 306.364 32.7467 307.111 33.12L307.311 40.12H306.591L304.151 35.24C303.137 34.52 302.244 34 301.471 33.68C300.724 33.36 299.871 33.2 298.911 33.2C296.991 33.2 295.271 33.68 293.751 34.64C292.257 35.6 291.071 36.92 290.191 38.6C289.337 40.2533 288.911 42.16 288.911 44.32C288.911 46.8533 289.324 49.0267 290.151 50.84C291.004 52.6267 292.137 54 293.551 54.96C294.991 55.8933 296.577 56.36 298.311 56.36C299.777 56.36 301.004 56.16 301.991 55.76C303.004 55.3333 303.897 54.8667 304.671 54.36L307.071 50.08H307.751L307.311 56.44C306.537 56.84 305.737 57.1867 304.911 57.48C304.111 57.7733 303.191 58 302.151 58.16C301.111 58.32 299.857 58.4 298.391 58.4ZM325.614 58.4C323.427 58.4 321.467 57.9067 319.734 56.92C318.027 55.9067 316.681 54.5333 315.694 52.8C314.707 51.04 314.214 49.04 314.214 46.8C314.214 44.56 314.707 42.56 315.694 40.8C316.681 39.04 318.027 37.6667 319.734 36.68C321.467 35.6667 323.427 35.16 325.614 35.16C327.827 35.16 329.787 35.6667 331.494 36.68C333.227 37.6667 334.587 39.04 335.574 40.8C336.587 42.56 337.094 44.56 337.094 46.8C337.094 49.04 336.587 51.04 335.574 52.8C334.587 54.5333 333.227 55.9067 331.494 56.92C329.787 57.9067 327.827 58.4 325.614 58.4ZM326.294 56.4C328.587 56.4 330.387 55.6133 331.694 54.04C333.001 52.4667 333.654 50.3867 333.654 47.8C333.654 45.6933 333.294 43.84 332.574 42.24C331.854 40.64 330.841 39.4 329.534 38.52C328.254 37.6133 326.774 37.16 325.094 37.16C322.801 37.16 320.987 37.9333 319.654 39.48C318.321 41.0267 317.654 43.0933 317.654 45.68C317.654 47.8133 318.014 49.6933 318.734 51.32C319.481 52.92 320.494 54.1733 321.774 55.08C323.081 55.96 324.587 56.4 326.294 56.4ZM342.095 58V57.36L344.935 56.04L345.695 37.56L342.615 36.24V35.6H349.775L357.375 52.56L365.295 35.6H372.095V36.24L369.135 37.36L369.695 56.04L372.255 57.36V58H363.575V57.36L366.215 56.08L365.855 39.36L357.095 58.16H356.055L347.695 39.36L347.295 56.08L350.215 57.36V58H342.095ZM377.256 58V57.36L380.136 56.04V37.56L377.296 36.24V35.6H394.296V41.28H393.656L391.856 37.64H383.536V45.4H389.536L390.736 42.68H391.376V50.08H390.736L389.536 47.4H383.536V56.04L386.856 57.36V58H377.256ZM411.278 58.4C409.091 58.4 407.131 57.9067 405.398 56.92C403.691 55.9067 402.345 54.5333 401.358 52.8C400.371 51.04 399.878 49.04 399.878 46.8C399.878 44.56 400.371 42.56 401.358 40.8C402.345 39.04 403.691 37.6667 405.398 36.68C407.131 35.6667 409.091 35.16 411.278 35.16C413.491 35.16 415.451 35.6667 417.158 36.68C418.891 37.6667 420.251 39.04 421.238 40.8C422.251 42.56 422.758 44.56 422.758 46.8C422.758 49.04 422.251 51.04 421.238 52.8C420.251 54.5333 418.891 55.9067 417.158 56.92C415.451 57.9067 413.491 58.4 411.278 58.4ZM411.958 56.4C414.251 56.4 416.051 55.6133 417.358 54.04C418.665 52.4667 419.318 50.3867 419.318 47.8C419.318 45.6933 418.958 43.84 418.238 42.24C417.518 40.64 416.505 39.4 415.198 38.52C413.918 37.6133 412.438 37.16 410.758 37.16C408.465 37.16 406.651 37.9333 405.318 39.48C403.985 41.0267 403.318 43.0933 403.318 45.68C403.318 47.8133 403.678 49.6933 404.398 51.32C405.145 52.92 406.158 54.1733 407.438 55.08C408.745 55.96 410.251 56.4 411.958 56.4ZM428.155 58V57.36L431.035 56.04V37.56L428.155 36.24V35.6H437.035C439.515 35.6 441.461 36.1067 442.875 37.12C444.315 38.1333 445.035 39.52 445.035 41.28C445.035 42.5867 444.621 43.7067 443.795 44.64C442.995 45.5733 441.875 46.3067 440.435 46.84L446.635 56.16L449.275 57.36V58H443.595L437.115 47.8H434.395V56L437.035 57.36V58H428.155ZM436.475 37.6H434.395V45.8H436.675C438.115 45.8 439.261 45.44 440.115 44.72C440.995 43.9733 441.435 42.96 441.435 41.68C441.435 40.32 440.995 39.3067 440.115 38.64C439.261 37.9467 438.048 37.6 436.475 37.6ZM455.68 58V57.36L459.24 56.04V37.6H453.08L451.12 42.28H450.48V35.6H471.44V42.28H470.8L468.8 37.6H462.64V56.04L466.24 57.36V58H455.68Z" fill="white"/>
    </g>
    <defs>
    <filter id="filter0_d_48_2" x="68.8" y="30.2" width="409.64" height="35.2" filterUnits="userSpaceOnUse" color-interpolation-filters="sRGB">
    <feFlood flood-opacity="0" result="BackgroundImageFix"/>
    <feColorMatrix in="SourceAlpha" type="matrix" values="0 0 0 0 0 0 0 0 0 0 0 0 0 0 0 0 0 0 127 0" result="hardAlpha"/>
    <feOffset dx="3" dy="3"/>
    <feGaussianBlur stdDeviation="2"/>
    <feComposite in2="hardAlpha" operator="out"/>
    <feColorMatrix type="matrix" values="0 0 0 0 0 0 0 0 0 0 0 0 0 0 0 0 0 0 1 0"/>
    <feBlend mode="normal" in2="BackgroundImageFix" result="effect1_dropShadow_48_2"/>
    <feBlend mode="normal" in="SourceGraphic" in2="effect1_dropShadow_48_2" result="shape"/>
    </filter>
    </defs>
    </svg>
    